<?xml version="1.0" encoding="UTF-8"?>
<svg width="172px" height="48px" viewBox="0 0 172 48" version="1.1" xmlns="http://www.w3.org/2000/svg" xmlns:xlink="http://www.w3.org/1999/xlink">
    <!-- Generator: Sketch 52.6 (67491) - http://www.bohemiancoding.com/sketch -->
    <title>logo</title>
    <desc>Created with Sketch.</desc>
    <defs>
        <circle id="path-1" cx="23.5" cy="23.5" r="17.5"></circle>
        <path d="M38,5.89200999 L38,12.9556804 C34.4619418,10.072187 30.8013325,8.63046192 27.0180624,8.63046192 C22.8494592,8.63046192 19.3377264,10.0892488 16.4827586,13.0068664 C13.6102757,15.9074219 12.1740558,19.4562836 12.1740558,23.6535581 C12.1740558,27.7996462 13.6102757,31.2973224 16.4827586,34.1466916 C19.3552415,36.9960609 22.8757318,38.4207241 27.044335,38.4207241 C29.1986971,38.4207241 31.0290018,38.0794874 32.5353038,37.3970037 C33.3760305,37.0557619 34.2473956,36.5950924 35.1494253,36.0149813 C36.051455,35.4348702 37.001637,34.7353349 38,33.9163546 L38,41.10799 C34.4969721,43.0360063 30.8188479,44 26.9655172,44 C21.168006,44 16.2200533,42.029358 12.1215107,38.088015 C8.04048315,34.1125477 6,29.3181721 6,23.7047441 C6,18.6714272 7.70770049,14.1841645 11.1231527,10.2428215 C15.3267862,5.41424968 20.7651555,3 27.4384236,3 C31.0815727,3 34.6020629,3.96399369 38,5.89200999 Z" id="path-2"></path>
        <path d="M48.28125,46.9042969 L39.6972656,46.9042969 L36.1523438,43.2714844 C32.3827937,45.6933715 28.1836169,46.9042969 23.5546875,46.9042969 C17.5585638,46.9042969 12.2363514,44.8730672 7.58789063,40.8105469 C2.52927158,36.3378683 0,30.6250348 0,23.671875 C0,16.8554347 2.3925542,11.1718978 7.17773437,6.62109375 C11.8261951,2.20700918 17.3144215,0 23.6425781,0 C29.3847943,0 34.5312272,1.93357441 39.0820312,5.80078125 C44.5508086,10.449242 47.2851562,16.5136345 47.2851562,23.9941406 C47.2851562,29.8535449 45.1269747,35.058571 40.8105469,39.609375 L48.28125,46.9042969 Z M29.5019531,28.1835938 L36.0644531,34.7167969 C38.9550926,31.7089693 40.4003906,27.9883034 40.4003906,23.5546875 C40.4003906,18.6913819 38.7890786,14.619157 35.5664062,11.3378906 C32.3437339,8.05662422 28.3398677,6.41601562 23.5546875,6.41601562 C18.7109133,6.41601562 14.7265781,8.05662422 11.6015625,11.3378906 C8.45701553,14.5996257 6.88476562,18.7304438 6.88476562,23.7304688 C6.88476562,28.6133057 8.50584316,32.6074063 11.7480469,35.7128906 C15.12697,38.9160316 18.9843533,40.5175781 23.3203125,40.5175781 C26.269546,40.5175781 28.935535,39.8437567 31.3183594,38.4960938 L20.6835938,28.1835938 L29.5019531,28.1835938 Z" id="path-3"></path>
    </defs>
    <g id="Page-1" stroke="none" stroke-width="1" fill="none" fill-rule="evenodd">
        <g id="logo" transform="translate(-3.000000, -3.000000)">
            <rect id="Rectangle" fill-opacity="0" fill="#040404" x="0" y="0" width="179" height="54"></rect>
            <g id="Group-2" transform="translate(3.000000, 3.000000)">
                <g id="Group" transform="translate(123.000000, 1.000000)">
                    <g id="Oval">
                        <use fill="#B21212" xlink:href="#path-1"></use>
                        <use fill="#000000" xlink:href="#path-1"></use>
                    </g>
                    <g id="CINAQ-Copy-3">
                        <use fill="#FFFFFF" xlink:href="#path-2"></use>
                        <use fill="#19508F" xlink:href="#path-2"></use>
                    </g>
                    <g id="CINAQ-Copy-2">
                        <use fill="#B21212" xlink:href="#path-3"></use>
                        <use fill="#4A90E2" xlink:href="#path-3"></use>
                    </g>
                </g>
                <path d="M35.8476562,4.19726563 L35.8476562,12.2832031 C31.902324,8.98240537 27.8203336,7.33203125 23.6015625,7.33203125 C18.9531018,7.33203125 15.0371253,9.00193643 11.8535156,12.3417969 C8.65037461,15.662126 7.04882812,19.7245854 7.04882812,24.5292969 C7.04882812,29.2754144 8.65037461,33.2792806 11.8535156,36.5410156 C15.0566566,39.8027507 18.9823986,41.4335938 23.6308594,41.4335938 C26.0332151,41.4335938 28.0742104,41.0429727 29.7539062,40.2617188 C30.6914109,39.8710918 31.6630809,39.3437533 32.6689453,38.6796875 C33.6748097,38.0156217 34.7343694,37.2148484 35.8476562,36.2773438 L35.8476562,44.5097656 C31.9413867,46.7168079 27.8398652,47.8203125 23.5429688,47.8203125 C17.0780927,47.8203125 11.5605697,45.5644757 6.99023438,41.0527344 C2.43943037,36.5019304 0.1640625,31.013704 0.1640625,24.5878906 C0.1640625,18.8261431 2.06834033,13.6894757 5.87695312,9.17773438 C10.5644766,3.65036299 16.628869,0.88671875 24.0703125,0.88671875 C28.1328328,0.88671875 32.0585748,1.99022334 35.8476562,4.19726563 Z M47.2871094,1.765625 L47.2871094,47 L40.4609375,47 L40.4609375,1.765625 L47.2871094,1.765625 Z M51.15625,47 L51.15625,0.88671875 L77.4440001,30.2586485 L77.4440001,0.88671875 L84.5061545,0.88671875 L84.5061545,47.3420373 L58.0950678,18.2400954 L58.0950678,47 L51.15625,47 Z M111.91386,35.6035156 L94.5175781,35.6035156 L94.5175781,46.9707031 L87.1640625,46.9707031 L87.1640625,0.88671875 L131.138672,46.9707031 L123.667969,46.9707031 L111.91386,35.6035156 Z M105.723513,29.5976563 L94.4994439,18.0147032 L94.4994439,29.5976563 L105.723513,29.5976563 Z" id="CINAQ-Copy" fill="#000000"></path>
            </g>
        </g>
    </g>
</svg>