<svg width="21" height="21" viewBox="0 0 21 21" fill="none" xmlns="http://www.w3.org/2000/svg">
<path d="M0.65625 13.1875H2.40625C3.37595 13.1875 4.30553 13.5731 4.99121 14.2588C5.67689 14.9445 6.0625 15.8741 6.0625 16.8438C6.0625 17.8134 5.67689 18.743 4.99121 19.4287C4.30553 20.1144 3.37595 20.5 2.40625 20.5H0.65625C0.498778 20.5 0.347678 20.4375 0.236328 20.3262C0.124979 20.2148 0.0625 20.0637 0.0625 19.9062V13.7812C0.0625 13.6238 0.124979 13.4727 0.236328 13.3613C0.347678 13.25 0.498778 13.1875 0.65625 13.1875ZM10.7188 13.1875C12.4862 13.1875 13.9375 14.8199 13.9375 16.8438C13.9375 18.8676 12.4862 20.5 10.7188 20.5C8.95132 20.5 7.5 18.8676 7.5 16.8438C7.5 14.8199 8.95132 13.1875 10.7188 13.1875ZM18.5928 13.1875C19.0024 13.1914 19.4076 13.2785 19.7822 13.4443C20.1099 13.5894 20.4082 13.7924 20.6641 14.042L20.7715 14.1514C20.8751 14.2659 20.9303 14.4169 20.9248 14.5713C20.9193 14.7255 20.8535 14.8717 20.7422 14.9785C20.6307 15.0854 20.4816 15.1445 20.3271 15.1436C20.1726 15.1425 20.0231 15.0812 19.9131 14.9727C19.7456 14.7895 19.5433 14.6417 19.3174 14.5391C19.0902 14.4359 18.8442 14.3801 18.5947 14.375H18.5938C17.462 14.375 16.5625 15.4948 16.5625 16.8438C16.5625 18.1927 17.462 19.3125 18.5938 19.3125H18.5947C18.844 19.3077 19.0902 19.2522 19.3174 19.1494C19.5439 19.0469 19.7472 18.8992 19.915 18.7158C20.024 18.6023 20.1737 18.5366 20.3311 18.5332C20.4881 18.5299 20.6403 18.5888 20.7539 18.6973V18.6982C20.8675 18.8072 20.9332 18.9569 20.9365 19.1143C20.9397 19.2714 20.8812 19.4236 20.7725 19.5371L20.7715 19.5381C20.4931 19.8383 20.1558 20.0787 19.7812 20.2441C19.4068 20.4095 19.0021 20.4954 18.5928 20.499C16.8258 20.4984 15.375 18.8672 15.375 16.8438C15.375 14.8203 16.8258 13.1881 18.5928 13.1875ZM1.25 19.3125H2.40625C3.061 19.3125 3.68936 19.0528 4.15234 18.5898C4.61532 18.1269 4.875 17.4985 4.875 16.8438C4.875 16.189 4.61532 15.5606 4.15234 15.0977C3.68936 14.6347 3.061 14.375 2.40625 14.375H1.25V19.3125ZM10.7188 14.375C9.58699 14.375 8.6875 15.4948 8.6875 16.8438C8.6875 18.1927 9.58699 19.3125 10.7188 19.3125C11.8505 19.3125 12.75 18.1927 12.75 16.8438C12.75 15.4948 11.8505 14.375 10.7188 14.375ZM2.84375 0.0625H13.3438C13.5011 0.0626529 13.6524 0.124959 13.7637 0.236328L19.8887 6.36133C20 6.47256 20.0623 6.62385 20.0625 6.78125V9.40625C20.0625 9.56372 20 9.71482 19.8887 9.82617C19.7773 9.93752 19.6262 10 19.4688 10C19.3113 10 19.1602 9.93752 19.0488 9.82617C18.9375 9.71482 18.875 9.56372 18.875 9.40625V7.375H13.3438C13.1863 7.375 13.0352 7.31252 12.9238 7.20117C12.8125 7.08982 12.75 6.93872 12.75 6.78125V1.25H2.84375C2.76916 1.25 2.69728 1.27929 2.64453 1.33203C2.59179 1.38478 2.5625 1.45666 2.5625 1.53125V9.40625C2.5625 9.56372 2.50002 9.71482 2.38867 9.82617C2.27732 9.93752 2.12622 10 1.96875 10C1.81128 10 1.66018 9.93752 1.54883 9.82617C1.43748 9.71482 1.375 9.56372 1.375 9.40625V1.53125C1.375 1.14171 1.53022 0.768608 1.80566 0.493164C2.08111 0.21772 2.45421 0.0625001 2.84375 0.0625ZM13.9375 6.1875H18.0361L17.9287 6.08105L14.0439 2.19629L13.9375 2.08887V6.1875Z" fill="#222E48" stroke="#222E48" stroke-width="0.125"/>
</svg>
