<svg width="23" height="23" viewBox="0 0 23 23" fill="none" xmlns="http://www.w3.org/2000/svg">
<path d="M1.53125 0.0625H20.7812C21.1708 0.0625 21.5439 0.21772 21.8193 0.493164C22.0948 0.768608 22.25 1.14171 22.25 1.53125V20.7812C22.25 21.1708 22.0948 21.5439 21.8193 21.8193C21.5439 22.0948 21.1708 22.25 20.7812 22.25H1.53125C1.14171 22.25 0.768608 22.0948 0.493164 21.8193C0.21772 21.5439 0.0625 21.1708 0.0625 20.7812V1.53125C0.0625 1.14171 0.21772 0.768608 0.493164 0.493164C0.768608 0.21772 1.14171 0.0625 1.53125 0.0625ZM1.53125 1.25C1.45666 1.25 1.38478 1.27929 1.33203 1.33203C1.27929 1.38478 1.25 1.45666 1.25 1.53125V20.7812C1.25 20.8558 1.27929 20.9277 1.33203 20.9805C1.38478 21.0332 1.45666 21.0625 1.53125 21.0625H20.7812C20.8558 21.0625 20.9277 21.0332 20.9805 20.9805C21.0332 20.9277 21.0625 20.8558 21.0625 20.7812V1.53125C21.0625 1.45666 21.0332 1.38478 20.9805 1.33203C20.9277 1.27929 20.8558 1.25 20.7812 1.25H1.53125ZM6.78125 8.8125C6.93872 8.8125 7.08982 8.87498 7.20117 8.98633C7.31252 9.09768 7.375 9.24878 7.375 9.40625V16.4062C7.375 16.5637 7.31252 16.7148 7.20117 16.8262C7.08982 16.9375 6.93872 17 6.78125 17C6.62378 17 6.47268 16.9375 6.36133 16.8262C6.24998 16.7148 6.1875 16.5637 6.1875 16.4062V9.40625C6.1875 9.24878 6.24998 9.09768 6.36133 8.98633C6.47268 8.87498 6.62378 8.8125 6.78125 8.8125ZM10.2812 8.8125C10.4387 8.8125 10.5898 8.87498 10.7012 8.98633C10.8125 9.09768 10.875 9.24878 10.875 9.40625V9.77246L10.9775 9.68457C11.5093 9.2333 12.1595 8.94371 12.8506 8.84961C13.5415 8.75555 14.245 8.86075 14.8779 9.15332C15.5108 9.44592 16.0469 9.91376 16.4229 10.501C16.7988 11.0884 16.9993 11.7713 17 12.4688V16.4062C17 16.5637 16.9375 16.7148 16.8262 16.8262C16.7148 16.9375 16.5637 17 16.4062 17C16.2488 17 16.0977 16.9375 15.9863 16.8262C15.875 16.7148 15.8125 16.5637 15.8125 16.4062V12.4688C15.8125 11.814 15.5528 11.1856 15.0898 10.7227C14.6269 10.2597 13.9985 10 13.3438 10C12.689 10 12.0606 10.2597 11.5977 10.7227C11.1347 11.1856 10.875 11.814 10.875 12.4688V16.4062C10.875 16.5637 10.8125 16.7148 10.7012 16.8262C10.5898 16.9375 10.4387 17 10.2812 17C10.1238 17 9.97268 16.9375 9.86133 16.8262C9.74998 16.7148 9.6875 16.5637 9.6875 16.4062V9.40625C9.6875 9.24878 9.74998 9.09768 9.86133 8.98633C9.97268 8.87498 10.1238 8.8125 10.2812 8.8125ZM6.78125 5.3125C7.05475 5.3125 7.31735 5.42086 7.51074 5.61426C7.70414 5.80765 7.8125 6.07025 7.8125 6.34375C7.8125 6.54771 7.75199 6.7474 7.63867 6.91699C7.52536 7.08647 7.36413 7.21886 7.17578 7.29688C6.98743 7.37484 6.78002 7.39523 6.58008 7.35547C6.38004 7.31568 6.19598 7.21747 6.05176 7.07324C5.90753 6.92902 5.80932 6.74496 5.76953 6.54492C5.72977 6.34498 5.75016 6.13757 5.82812 5.94922C5.90614 5.76087 6.03853 5.59964 6.20801 5.48633C6.3776 5.37301 6.57729 5.3125 6.78125 5.3125Z" fill="#222E48" stroke="#222E48" stroke-width="0.125"/>
</svg>
