<svg width="119" height="36" viewBox="0 0 119 36" fill="none" xmlns="http://www.w3.org/2000/svg">
<g clip-path="url(#clip0_3243_11406)">
<path d="M38.762 22.002H42.902V24H36.242V11.436H38.762V22.002ZM48.9317 24.162C47.9717 24.162 47.1077 23.952 46.3397 23.532C45.5717 23.1 44.9657 22.494 44.5217 21.714C44.0897 20.934 43.8737 20.034 43.8737 19.014C43.8737 17.994 44.0957 17.094 44.5397 16.314C44.9957 15.534 45.6137 14.934 46.3937 14.514C47.1737 14.082 48.0437 13.866 49.0037 13.866C49.9637 13.866 50.8337 14.082 51.6137 14.514C52.3937 14.934 53.0057 15.534 53.4497 16.314C53.9057 17.094 54.1337 17.994 54.1337 19.014C54.1337 20.034 53.8997 20.934 53.4317 21.714C52.9757 22.494 52.3517 23.1 51.5597 23.532C50.7797 23.952 49.9037 24.162 48.9317 24.162ZM48.9317 21.966C49.3877 21.966 49.8137 21.858 50.2097 21.642C50.6177 21.414 50.9417 21.078 51.1817 20.634C51.4217 20.19 51.5417 19.65 51.5417 19.014C51.5417 18.066 51.2897 17.34 50.7857 16.836C50.2937 16.32 49.6877 16.062 48.9677 16.062C48.2477 16.062 47.6417 16.32 47.1497 16.836C46.6697 17.34 46.4297 18.066 46.4297 19.014C46.4297 19.962 46.6637 20.694 47.1317 21.21C47.6117 21.714 48.2117 21.966 48.9317 21.966ZM69.8062 14.028L66.8902 24H64.1722L62.3542 17.034L60.5362 24H57.8002L54.8662 14.028H57.4222L59.1862 21.624L61.0942 14.028H63.7582L65.6302 21.606L67.3942 14.028H69.8062ZM78.8377 16.512V18.636H71.2057V16.512H78.8377ZM87.4959 24.126C86.3199 24.126 85.2399 23.85 84.2559 23.298C83.2719 22.746 82.4919 21.984 81.9159 21.012C81.3399 20.028 81.0519 18.918 81.0519 17.682C81.0519 16.458 81.3399 15.36 81.9159 14.388C82.4919 13.404 83.2719 12.636 84.2559 12.084C85.2399 11.532 86.3199 11.256 87.4959 11.256C88.6839 11.256 89.7639 11.532 90.7359 12.084C91.7199 12.636 92.4939 13.404 93.0579 14.388C93.6339 15.36 93.9219 16.458 93.9219 17.682C93.9219 18.918 93.6339 20.028 93.0579 21.012C92.4939 21.984 91.7199 22.746 90.7359 23.298C89.7519 23.85 88.6719 24.126 87.4959 24.126ZM87.4959 21.876C88.2519 21.876 88.9179 21.708 89.4939 21.372C90.0699 21.024 90.5199 20.532 90.8439 19.896C91.1679 19.26 91.3299 18.522 91.3299 17.682C91.3299 16.842 91.1679 16.11 90.8439 15.486C90.5199 14.85 90.0699 14.364 89.4939 14.028C88.9179 13.692 88.2519 13.524 87.4959 13.524C86.7399 13.524 86.0679 13.692 85.4799 14.028C84.9039 14.364 84.4539 14.85 84.1299 15.486C83.8059 16.11 83.6439 16.842 83.6439 17.682C83.6439 18.522 83.8059 19.26 84.1299 19.896C84.4539 20.532 84.9039 21.024 85.4799 21.372C86.0679 21.708 86.7399 21.876 87.4959 21.876ZM98.3167 15.468C98.6407 15.012 99.0847 14.634 99.6487 14.334C100.225 14.022 100.879 13.866 101.611 13.866C102.463 13.866 103.231 14.076 103.915 14.496C104.611 14.916 105.157 15.516 105.553 16.296C105.961 17.064 106.165 17.958 106.165 18.978C106.165 19.998 105.961 20.904 105.553 21.696C105.157 22.476 104.611 23.082 103.915 23.514C103.231 23.946 102.463 24.162 101.611 24.162C100.879 24.162 100.231 24.012 99.6667 23.712C99.1147 23.412 98.6647 23.034 98.3167 22.578V28.752H95.7967V14.028H98.3167V15.468ZM103.591 18.978C103.591 18.378 103.465 17.862 103.213 17.43C102.973 16.986 102.649 16.65 102.241 16.422C101.845 16.194 101.413 16.08 100.945 16.08C100.489 16.08 100.057 16.2 99.6487 16.44C99.2527 16.668 98.9287 17.004 98.6767 17.448C98.4367 17.892 98.3167 18.414 98.3167 19.014C98.3167 19.614 98.4367 20.136 98.6767 20.58C98.9287 21.024 99.2527 21.366 99.6487 21.606C100.057 21.834 100.489 21.948 100.945 21.948C101.413 21.948 101.845 21.828 102.241 21.588C102.649 21.348 102.973 21.006 103.213 20.562C103.465 20.118 103.591 19.59 103.591 18.978ZM111.812 24.162C110.996 24.162 110.264 24.018 109.616 23.73C108.968 23.43 108.452 23.028 108.068 22.524C107.696 22.02 107.492 21.462 107.456 20.85H109.994C110.042 21.234 110.228 21.552 110.552 21.804C110.888 22.056 111.302 22.182 111.794 22.182C112.274 22.182 112.646 22.086 112.91 21.894C113.186 21.702 113.324 21.456 113.324 21.156C113.324 20.832 113.156 20.592 112.82 20.436C112.496 20.268 111.974 20.088 111.254 19.896C110.51 19.716 109.898 19.53 109.418 19.338C108.95 19.146 108.542 18.852 108.194 18.456C107.858 18.06 107.69 17.526 107.69 16.854C107.69 16.302 107.846 15.798 108.158 15.342C108.482 14.886 108.938 14.526 109.526 14.262C110.126 13.998 110.828 13.866 111.632 13.866C112.82 13.866 113.768 14.166 114.476 14.766C115.184 15.354 115.574 16.152 115.646 17.16H113.234C113.198 16.764 113.03 16.452 112.73 16.224C112.442 15.984 112.052 15.864 111.56 15.864C111.104 15.864 110.75 15.948 110.498 16.116C110.258 16.284 110.138 16.518 110.138 16.818C110.138 17.154 110.306 17.412 110.642 17.592C110.978 17.76 111.5 17.934 112.208 18.114C112.928 18.294 113.522 18.48 113.99 18.672C114.458 18.864 114.86 19.164 115.196 19.572C115.544 19.968 115.724 20.496 115.736 21.156C115.736 21.732 115.574 22.248 115.25 22.704C114.938 23.16 114.482 23.52 113.882 23.784C113.294 24.036 112.604 24.162 111.812 24.162Z" fill="#0C111D"/>
<g filter="url(#filter0_i_3243_11406)">
<rect width="4.864" height="4.864" rx="0.5" transform="matrix(0.946214 -0.323123 0.328266 0.944729 17.8756 6.23828)" fill="#024899"/>
<rect width="4.864" height="4.864" rx="0.5" transform="matrix(0.946214 -0.323123 0.328266 0.944729 19.6765 11.4668)" fill="#024899"/>
<rect width="4.864" height="4.864" rx="0.5" transform="matrix(0.946214 -0.323123 0.328266 0.944729 21.4851 16.7168)" fill="#024899"/>
<rect width="4.864" height="4.864" rx="0.5" transform="matrix(0.946214 -0.323123 0.328266 0.944729 16.2456 18.5234)" fill="#024899"/>
<rect width="4.864" height="4.864" rx="0.5" transform="matrix(0.946214 -0.323123 0.328266 0.944729 11.006 20.3223)" fill="#024899"/>
<rect width="4.864" height="4.864" rx="0.5" transform="matrix(0.946214 -0.323123 0.328266 0.944729 9.20123 15.085)" fill="#024899"/>
<rect width="4.864" height="4.864" rx="0.5" transform="matrix(0.946214 -0.323123 0.328266 0.944729 7.39648 9.84473)" fill="#024899"/>
<rect width="4.864" height="4.864" rx="0.5" transform="matrix(0.946214 -0.323123 0.328266 0.944729 12.636 8.04102)" fill="#024899"/>
<rect width="4.864" height="4.864" rx="0.5" transform="matrix(0.946214 -0.323123 0.328266 0.944729 2.15686 11.6504)" fill="#4D99F2"/>
<rect width="4.864" height="4.864" rx="0.5" transform="matrix(0.946214 -0.323123 0.328266 0.944729 3.96161 16.8877)" fill="#4D99F2"/>
<rect width="4.864" height="4.864" rx="0.5" transform="matrix(0.946214 -0.323123 0.328266 0.944729 5.76642 22.125)" fill="#4D99F2"/>
<rect width="4.864" height="4.864" rx="0.5" transform="matrix(0.946214 -0.323123 0.328266 0.944729 7.57104 27.3643)" fill="#4D99F2"/>
<rect width="4.864" height="4.864" rx="0.5" transform="matrix(0.946214 -0.323123 0.328266 0.944729 12.8107 25.5615)" fill="#4D99F2"/>
<rect width="4.864" height="4.864" rx="0.5" transform="matrix(0.946214 -0.323123 0.328266 0.944729 18.0503 23.7588)" fill="#4D99F2"/>
<rect width="4.864" height="4.864" rx="0.5" transform="matrix(0.946214 -0.323123 0.328266 0.944729 23.2899 21.957)" fill="#4D99F2"/>
</g>
</g>
<defs>
<filter id="filter0_i_3243_11406" x="2.29321" y="4.60078" width="27.2595" height="27.2244" filterUnits="userSpaceOnUse" color-interpolation-filters="sRGB">
<feFlood flood-opacity="0" result="BackgroundImageFix"/>
<feBlend mode="normal" in="SourceGraphic" in2="BackgroundImageFix" result="shape"/>
<feColorMatrix in="SourceAlpha" type="matrix" values="0 0 0 0 0 0 0 0 0 0 0 0 0 0 0 0 0 0 127 0" result="hardAlpha"/>
<feOffset dx="0.2" dy="-0.2"/>
<feGaussianBlur stdDeviation="0.1"/>
<feComposite in2="hardAlpha" operator="arithmetic" k2="-1" k3="1"/>
<feColorMatrix type="matrix" values="0 0 0 0 0 0 0 0 0 0 0 0 0 0 0 0 0 0 0.4 0"/>
<feBlend mode="normal" in2="shape" result="effect1_innerShadow_3243_11406"/>
</filter>
<clipPath id="clip0_3243_11406">
<rect width="119" height="36" fill="white"/>
</clipPath>
</defs>
</svg>
