<svg width="150" height="30" viewBox="0 0 150 30" fill="none" xmlns="http://www.w3.org/2000/svg">
<path d="M40.6912 18.7608H46.5703V21.5015H37.1126V4.26693H40.6912V18.7608ZM55.133 21.7237C53.7697 21.7237 52.5427 21.4357 51.4521 20.8595C50.3615 20.267 49.5009 19.4357 48.8704 18.3657C48.257 17.2958 47.9502 16.0612 47.9502 14.662C47.9502 13.2628 48.2655 12.0283 48.896 10.9583C49.5435 9.88834 50.4211 9.06529 51.5288 8.48916C52.6365 7.89657 53.8719 7.60027 55.2352 7.60027C56.5985 7.60027 57.8339 7.89657 58.9416 8.48916C60.0492 9.06529 60.9183 9.88834 61.5488 10.9583C62.1964 12.0283 62.5202 13.2628 62.5202 14.662C62.5202 16.0612 62.1879 17.2958 61.5233 18.3657C60.8757 19.4357 59.9896 20.267 58.8649 20.8595C57.7572 21.4357 56.5133 21.7237 55.133 21.7237ZM55.133 18.7114C55.7805 18.7114 56.3855 18.5632 56.9478 18.267C57.5272 17.9542 57.9873 17.4933 58.3281 16.8842C58.6689 16.2752 58.8393 15.5344 58.8393 14.662C58.8393 13.3616 58.4815 12.3657 57.7658 11.6744C57.0671 10.9665 56.2065 10.6126 55.1841 10.6126C54.1616 10.6126 53.3011 10.9665 52.6024 11.6744C51.9207 12.3657 51.5799 13.3616 51.5799 14.662C51.5799 15.9624 51.9122 16.9665 52.5768 17.6744C53.2585 18.3657 54.1105 18.7114 55.133 18.7114ZM84.7763 7.82249L80.6353 21.5015H76.7756L74.1939 11.946L71.6122 21.5015H67.7269L63.5604 7.82249H67.1901L69.6951 18.2423L72.4046 7.82249H76.1877L78.8461 18.2176L81.3511 7.82249H84.7763ZM97.6017 11.2299V14.1435H86.7637V11.2299H97.6017ZM109.897 21.6744C108.227 21.6744 106.693 21.2958 105.296 20.5386C103.899 19.7814 102.791 18.7361 101.973 17.4028C101.155 16.053 100.746 14.5303 100.746 12.8348C100.746 11.1558 101.155 9.64966 101.973 8.31632C102.791 6.96653 103.899 5.91303 105.296 5.15582C106.693 4.39862 108.227 4.02002 109.897 4.02002C111.584 4.02002 113.118 4.39862 114.498 5.15582C115.895 5.91303 116.994 6.96653 117.795 8.31632C118.613 9.64966 119.022 11.1558 119.022 12.8348C119.022 14.5303 118.613 16.053 117.795 17.4028C116.994 18.7361 115.895 19.7814 114.498 20.5386C113.101 21.2958 111.567 21.6744 109.897 21.6744ZM109.897 18.5879C110.971 18.5879 111.916 18.3575 112.734 17.8966C113.552 17.4192 114.191 16.7443 114.651 15.8719C115.111 14.9995 115.342 13.9871 115.342 12.8348C115.342 11.6826 115.111 10.6785 114.651 9.8225C114.191 8.95007 113.552 8.2834 112.734 7.82249C111.916 7.36159 110.971 7.13114 109.897 7.13114C108.823 7.13114 107.869 7.36159 107.034 7.82249C106.216 8.2834 105.577 8.95007 105.117 9.8225C104.657 10.6785 104.427 11.6826 104.427 12.8348C104.427 13.9871 104.657 14.9995 105.117 15.8719C105.577 16.7443 106.216 17.4192 107.034 17.8966C107.869 18.3575 108.823 18.5879 109.897 18.5879ZM125.264 9.79781C125.724 9.17229 126.354 8.65377 127.155 8.24225C127.973 7.81426 128.902 7.60027 129.941 7.60027C131.151 7.60027 132.242 7.88834 133.213 8.46447C134.202 9.0406 134.977 9.86365 135.539 10.9336C136.119 11.9871 136.408 13.2134 136.408 14.6126C136.408 16.0118 136.119 17.2546 135.539 18.341C134.977 19.411 134.202 20.2423 133.213 20.8349C132.242 21.4274 131.151 21.7237 129.941 21.7237C128.902 21.7237 127.982 21.518 127.181 21.1065C126.397 20.6949 125.758 20.1764 125.264 19.5509V28.0201H121.685V7.82249H125.264V9.79781ZM132.753 14.6126C132.753 13.7896 132.574 13.0818 132.216 12.4892C131.876 11.8801 131.415 11.4192 130.836 11.1064C130.274 10.7937 129.66 10.6373 128.996 10.6373C128.348 10.6373 127.735 10.8019 127.155 11.1311C126.593 11.4439 126.133 11.9048 125.775 12.5139C125.434 13.1229 125.264 13.839 125.264 14.662C125.264 15.4851 125.434 16.2011 125.775 16.8102C126.133 17.4192 126.593 17.8884 127.155 18.2176C127.735 18.5303 128.348 18.6867 128.996 18.6867C129.66 18.6867 130.274 18.5221 130.836 18.1929C131.415 17.8637 131.876 17.3945 132.216 16.7855C132.574 16.1764 132.753 15.4521 132.753 14.6126ZM144.428 21.7237C143.269 21.7237 142.229 21.5262 141.309 21.1312C140.389 20.7196 139.656 20.1682 139.111 19.4768C138.583 18.7855 138.293 18.02 138.242 17.1805H141.846C141.914 17.7073 142.178 18.1435 142.638 18.4892C143.115 18.8349 143.703 19.0077 144.402 19.0077C145.084 19.0077 145.612 18.876 145.987 18.6126C146.379 18.3493 146.575 18.0118 146.575 17.6003C146.575 17.1558 146.336 16.8266 145.859 16.6126C145.399 16.3822 144.658 16.1353 143.635 15.8719C142.579 15.625 141.71 15.3698 141.028 15.1065C140.363 14.8431 139.784 14.4398 139.29 13.8966C138.813 13.3534 138.574 12.6209 138.574 11.699C138.574 10.9418 138.796 10.2505 139.239 9.62497C139.699 8.99945 140.346 8.50562 141.181 8.14348C142.033 7.78134 143.03 7.60027 144.172 7.60027C145.859 7.60027 147.205 8.01179 148.211 8.83484C149.216 9.64143 149.77 10.7361 149.872 12.1188H146.447C146.396 11.5756 146.157 11.1476 145.731 10.8348C145.322 10.5056 144.768 10.341 144.07 10.341C143.422 10.341 142.919 10.4562 142.562 10.6867C142.221 10.9171 142.05 11.2381 142.05 11.6497C142.05 12.1106 142.289 12.4645 142.766 12.7114C143.243 12.9418 143.985 13.1805 144.99 13.4274C146.012 13.6744 146.856 13.9295 147.521 14.1929C148.185 14.4562 148.756 14.8678 149.233 15.4274C149.727 15.9707 149.983 16.6949 150 17.6003C150 18.3904 149.77 19.0982 149.31 19.7237C148.867 20.3493 148.219 20.8431 147.367 21.2052C146.532 21.5509 145.552 21.7237 144.428 21.7237Z" fill="#0C111D"/>
<g filter="url(#filter0_i_15233_479)">
<path d="M22.4879 0.168935L18.2943 1.56136C18.0133 1.65464 17.8644 1.95087 17.9617 2.22301L19.4135 6.28538C19.5107 6.55752 19.8173 6.70252 20.0983 6.60924L24.2919 5.21682C24.5728 5.12354 24.7217 4.82731 24.6245 4.55516L23.1727 0.492794C23.0754 0.220652 22.7688 0.0756557 22.4879 0.168935Z" fill="#024899"/>
<path d="M24.5252 5.91378L20.3315 7.3062C20.0506 7.39948 19.9017 7.69571 19.999 7.96785L21.4508 12.0302C21.548 12.3024 21.8546 12.4474 22.1355 12.3541L26.3292 10.9617C26.6101 10.8684 26.759 10.5721 26.6617 10.3L25.2099 6.23764C25.1127 5.96549 24.8061 5.8205 24.5252 5.91378Z" fill="#024899"/>
<path d="M26.5624 11.6811L22.3688 13.0735C22.0879 13.1668 21.939 13.463 22.0362 13.7352L23.488 17.7975C23.5853 18.0697 23.8919 18.2147 24.1728 18.1214L28.3664 16.729C28.6474 16.6357 28.7963 16.3395 28.699 16.0673L27.2472 12.0049C27.15 11.7328 26.8434 11.5878 26.5624 11.6811Z" fill="#024899"/>
<path d="M20.6399 13.6692L16.4463 15.0617C16.1653 15.1549 16.0164 15.4512 16.1137 15.7233L17.5655 19.7857C17.6628 20.0578 17.9694 20.2028 18.2503 20.1095L22.4439 18.7171C22.7248 18.6238 22.8737 18.3276 22.7765 18.0555L21.3247 13.9931C21.2274 13.721 20.9208 13.576 20.6399 13.6692Z" fill="#024899"/>
<path d="M14.7084 15.6495L10.5148 17.0419C10.2338 17.1352 10.0849 17.4314 10.1822 17.7035L11.634 21.7659C11.7312 22.0381 12.0378 22.183 12.3188 22.0898L16.5124 20.6973C16.7933 20.6041 16.9422 20.3078 16.845 20.0357L15.3932 15.9733C15.2959 15.7012 14.9893 15.5562 14.7084 15.6495Z" fill="#024899"/>
<path d="M12.6621 9.8955L8.46847 11.2879C8.18754 11.3812 8.03864 11.6774 8.13589 11.9496L9.5877 16.0119C9.68495 16.2841 9.99154 16.4291 10.2725 16.3358L14.4661 14.9434C14.747 14.8501 14.8959 14.5539 14.7987 14.2817L13.3469 10.2194C13.2496 9.94721 12.943 9.80222 12.6621 9.8955Z" fill="#024899"/>
<path d="M10.6248 4.13842L6.43119 5.53084C6.15026 5.62412 6.00136 5.92035 6.09862 6.19249L7.55042 10.2549C7.64768 10.527 7.95426 10.672 8.2352 10.5787L12.4288 9.1863C12.7098 9.09302 12.8587 8.79679 12.7614 8.52465L11.3096 4.46228C11.2123 4.19013 10.9058 4.04514 10.6248 4.13842Z" fill="#024899"/>
<path d="M16.5654 2.15288L12.3717 3.54531C12.0908 3.63858 11.9419 3.93482 12.0392 4.20696L13.491 8.26933C13.5882 8.54147 13.8948 8.68647 14.1757 8.59319L18.3694 7.20076C18.6503 7.10749 18.7992 6.81125 18.702 6.53911L17.2501 2.47674C17.1529 2.2046 16.8463 2.0596 16.5654 2.15288Z" fill="#024899"/>
<path d="M4.7023 6.12551L0.508677 7.51793C0.227742 7.61121 0.0788428 7.90744 0.1761 8.17958L1.6279 12.242C1.72516 12.5141 2.03175 12.6591 2.31268 12.5658L6.50631 11.1734C6.78724 11.0801 6.93614 10.7839 6.83888 10.5117L5.38708 6.44937C5.28982 6.17723 4.98324 6.03223 4.7023 6.12551Z" fill="#4D99F2"/>
<path d="M6.73056 11.8795L2.53694 13.2719C2.256 13.3652 2.1071 13.6614 2.20436 13.9336L3.65616 17.9959C3.75342 18.2681 4.06001 18.4131 4.34094 18.3198L8.53457 16.9274C8.8155 16.8341 8.9644 16.5378 8.86714 16.2657L7.41534 12.2033C7.31808 11.9312 7.0115 11.7862 6.73056 11.8795Z" fill="#4D99F2"/>
<path d="M8.77686 17.6346L4.58323 19.027C4.3023 19.1203 4.1534 19.4165 4.25065 19.6886L5.70246 23.751C5.79972 24.0232 6.1063 24.1682 6.38724 24.0749L10.5809 22.6825C10.8618 22.5892 11.0107 22.2929 10.9134 22.0208L9.46163 17.9584C9.36438 17.6863 9.05779 17.5413 8.77686 17.6346Z" fill="#4D99F2"/>
<path d="M10.8141 23.3908L6.62049 24.7832C6.33956 24.8765 6.19066 25.1727 6.28792 25.4448L7.73972 29.5072C7.83698 29.7794 8.14356 29.9244 8.4245 29.8311L12.6181 28.4386C12.8991 28.3454 13.048 28.0491 12.9507 27.777L11.4989 23.7146C11.4016 23.4425 11.0951 23.2975 10.8141 23.3908Z" fill="#4D99F2"/>
<path d="M16.7457 21.4065L12.552 22.799C12.2711 22.8922 12.1222 23.1885 12.2195 23.4606L13.6713 27.523C13.7685 27.7951 14.0751 27.9401 14.356 27.8468L18.5497 26.4544C18.8306 26.3611 18.9795 26.0649 18.8822 25.7928L17.4304 21.7304C17.3332 21.4583 17.0266 21.3133 16.7457 21.4065Z" fill="#4D99F2"/>
<path d="M22.6772 19.4214L18.4836 20.8139C18.2026 20.9071 18.0537 21.2034 18.151 21.4755L19.6028 25.5379C19.7 25.81 20.0066 25.955 20.2876 25.8617L24.4812 24.4693C24.7621 24.376 24.911 24.0798 24.8138 23.8077L23.362 19.7453C23.2647 19.4732 22.9581 19.3282 22.6772 19.4214Z" fill="#4D99F2"/>
<path d="M28.5997 17.4379L24.4061 18.8304C24.1251 18.9236 23.9762 19.2199 24.0735 19.492L25.5253 23.5544C25.6226 23.8265 25.9291 23.9715 26.2101 23.8783L30.4037 22.4858C30.6846 22.3926 30.8335 22.0963 30.7363 21.8242L29.2845 17.7618C29.1872 17.4897 28.8806 17.3447 28.5997 17.4379Z" fill="#4D99F2"/>
</g>
<defs>
<filter id="filter0_i_15233_479" x="0.146332" y="-0.0593483" width="30.8197" height="29.9187" filterUnits="userSpaceOnUse" color-interpolation-filters="sRGB">
<feFlood flood-opacity="0" result="BackgroundImageFix"/>
<feBlend mode="normal" in="SourceGraphic" in2="BackgroundImageFix" result="shape"/>
<feColorMatrix in="SourceAlpha" type="matrix" values="0 0 0 0 0 0 0 0 0 0 0 0 0 0 0 0 0 0 127 0" result="hardAlpha"/>
<feOffset dx="0.2" dy="-0.2"/>
<feGaussianBlur stdDeviation="0.1"/>
<feComposite in2="hardAlpha" operator="arithmetic" k2="-1" k3="1"/>
<feColorMatrix type="matrix" values="0 0 0 0 0 0 0 0 0 0 0 0 0 0 0 0 0 0 0.4 0"/>
<feBlend mode="normal" in2="shape" result="effect1_innerShadow_15233_479"/>
</filter>
</defs>
</svg>
