<svg width="123" height="36" viewBox="0 0 123 36" fill="none" xmlns="http://www.w3.org/2000/svg">
<g clip-path="url(#clip0_3236_11261)">
<path d="M42.762 22.002H46.902V24H40.242V11.436H42.762V22.002ZM52.9317 24.162C51.9717 24.162 51.1077 23.952 50.3397 23.532C49.5717 23.1 48.9657 22.494 48.5217 21.714C48.0897 20.934 47.8737 20.034 47.8737 19.014C47.8737 17.994 48.0957 17.094 48.5397 16.314C48.9957 15.534 49.6137 14.934 50.3937 14.514C51.1737 14.082 52.0437 13.866 53.0037 13.866C53.9637 13.866 54.8337 14.082 55.6137 14.514C56.3937 14.934 57.0057 15.534 57.4497 16.314C57.9057 17.094 58.1337 17.994 58.1337 19.014C58.1337 20.034 57.8997 20.934 57.4317 21.714C56.9757 22.494 56.3517 23.1 55.5597 23.532C54.7797 23.952 53.9037 24.162 52.9317 24.162ZM52.9317 21.966C53.3877 21.966 53.8137 21.858 54.2097 21.642C54.6177 21.414 54.9417 21.078 55.1817 20.634C55.4217 20.19 55.5417 19.65 55.5417 19.014C55.5417 18.066 55.2897 17.34 54.7857 16.836C54.2937 16.32 53.6877 16.062 52.9677 16.062C52.2477 16.062 51.6417 16.32 51.1497 16.836C50.6697 17.34 50.4297 18.066 50.4297 19.014C50.4297 19.962 50.6637 20.694 51.1317 21.21C51.6117 21.714 52.2117 21.966 52.9317 21.966ZM73.8062 14.028L70.8902 24H68.1722L66.3542 17.034L64.5362 24H61.8002L58.8662 14.028H61.4222L63.1862 21.624L65.0942 14.028H67.7582L69.6302 21.606L71.3942 14.028H73.8062ZM82.8377 16.512V18.636H75.2057V16.512H82.8377ZM91.4959 24.126C90.3199 24.126 89.2399 23.85 88.2559 23.298C87.2719 22.746 86.4919 21.984 85.9159 21.012C85.3399 20.028 85.0519 18.918 85.0519 17.682C85.0519 16.458 85.3399 15.36 85.9159 14.388C86.4919 13.404 87.2719 12.636 88.2559 12.084C89.2399 11.532 90.3199 11.256 91.4959 11.256C92.6839 11.256 93.7639 11.532 94.7359 12.084C95.7199 12.636 96.4939 13.404 97.0579 14.388C97.6339 15.36 97.9219 16.458 97.9219 17.682C97.9219 18.918 97.6339 20.028 97.0579 21.012C96.4939 21.984 95.7199 22.746 94.7359 23.298C93.7519 23.85 92.6719 24.126 91.4959 24.126ZM91.4959 21.876C92.2519 21.876 92.9179 21.708 93.4939 21.372C94.0699 21.024 94.5199 20.532 94.8439 19.896C95.1679 19.26 95.3299 18.522 95.3299 17.682C95.3299 16.842 95.1679 16.11 94.8439 15.486C94.5199 14.85 94.0699 14.364 93.4939 14.028C92.9179 13.692 92.2519 13.524 91.4959 13.524C90.7399 13.524 90.0679 13.692 89.4799 14.028C88.9039 14.364 88.4539 14.85 88.1299 15.486C87.8059 16.11 87.6439 16.842 87.6439 17.682C87.6439 18.522 87.8059 19.26 88.1299 19.896C88.4539 20.532 88.9039 21.024 89.4799 21.372C90.0679 21.708 90.7399 21.876 91.4959 21.876ZM102.317 15.468C102.641 15.012 103.085 14.634 103.649 14.334C104.225 14.022 104.879 13.866 105.611 13.866C106.463 13.866 107.231 14.076 107.915 14.496C108.611 14.916 109.157 15.516 109.553 16.296C109.961 17.064 110.165 17.958 110.165 18.978C110.165 19.998 109.961 20.904 109.553 21.696C109.157 22.476 108.611 23.082 107.915 23.514C107.231 23.946 106.463 24.162 105.611 24.162C104.879 24.162 104.231 24.012 103.667 23.712C103.115 23.412 102.665 23.034 102.317 22.578V28.752H99.7967V14.028H102.317V15.468ZM107.591 18.978C107.591 18.378 107.465 17.862 107.213 17.43C106.973 16.986 106.649 16.65 106.241 16.422C105.845 16.194 105.413 16.08 104.945 16.08C104.489 16.08 104.057 16.2 103.649 16.44C103.253 16.668 102.929 17.004 102.677 17.448C102.437 17.892 102.317 18.414 102.317 19.014C102.317 19.614 102.437 20.136 102.677 20.58C102.929 21.024 103.253 21.366 103.649 21.606C104.057 21.834 104.489 21.948 104.945 21.948C105.413 21.948 105.845 21.828 106.241 21.588C106.649 21.348 106.973 21.006 107.213 20.562C107.465 20.118 107.591 19.59 107.591 18.978ZM115.812 24.162C114.996 24.162 114.264 24.018 113.616 23.73C112.968 23.43 112.452 23.028 112.068 22.524C111.696 22.02 111.492 21.462 111.456 20.85H113.994C114.042 21.234 114.228 21.552 114.552 21.804C114.888 22.056 115.302 22.182 115.794 22.182C116.274 22.182 116.646 22.086 116.91 21.894C117.186 21.702 117.324 21.456 117.324 21.156C117.324 20.832 117.156 20.592 116.82 20.436C116.496 20.268 115.974 20.088 115.254 19.896C114.51 19.716 113.898 19.53 113.418 19.338C112.95 19.146 112.542 18.852 112.194 18.456C111.858 18.06 111.69 17.526 111.69 16.854C111.69 16.302 111.846 15.798 112.158 15.342C112.482 14.886 112.938 14.526 113.526 14.262C114.126 13.998 114.828 13.866 115.632 13.866C116.82 13.866 117.768 14.166 118.476 14.766C119.184 15.354 119.574 16.152 119.646 17.16H117.234C117.198 16.764 117.03 16.452 116.73 16.224C116.442 15.984 116.052 15.864 115.56 15.864C115.104 15.864 114.75 15.948 114.498 16.116C114.258 16.284 114.138 16.518 114.138 16.818C114.138 17.154 114.306 17.412 114.642 17.592C114.978 17.76 115.5 17.934 116.208 18.114C116.928 18.294 117.522 18.48 117.99 18.672C118.458 18.864 118.86 19.164 119.196 19.572C119.544 19.968 119.724 20.496 119.736 21.156C119.736 21.732 119.574 22.248 119.25 22.704C118.938 23.16 118.482 23.52 117.882 23.784C117.294 24.036 116.604 24.162 115.812 24.162Z" fill="white"/>
<g filter="url(#filter0_i_3236_11261)">
<rect width="5.12209" height="5.12209" rx="0.5" transform="matrix(0.945979 -0.32381 0.32758 0.944967 19.5576 5.67383)" fill="#024899"/>
<rect width="5.12209" height="5.12209" rx="0.5" transform="matrix(0.945979 -0.32381 0.32758 0.944967 21.4502 11.1816)" fill="#024899"/>
<rect width="5.12209" height="5.12209" rx="0.5" transform="matrix(0.945979 -0.32381 0.32758 0.944967 23.3508 16.7109)" fill="#024899"/>
<rect width="5.12209" height="5.12209" rx="0.5" transform="matrix(0.945979 -0.32381 0.32758 0.944967 17.8346 18.6172)" fill="#024899"/>
<rect width="5.12209" height="5.12209" rx="0.5" transform="matrix(0.945979 -0.32381 0.32758 0.944967 12.3183 20.5156)" fill="#024899"/>
<rect width="5.12209" height="5.12209" rx="0.5" transform="matrix(0.945979 -0.32381 0.32758 0.944967 10.4218 14.999)" fill="#024899"/>
<rect width="5.12209" height="5.12209" rx="0.5" transform="matrix(0.945979 -0.32381 0.32758 0.944967 8.52521 9.47949)" fill="#024899"/>
<rect width="5.12209" height="5.12209" rx="0.5" transform="matrix(0.945979 -0.32381 0.32758 0.944967 14.0414 7.57617)" fill="#024899"/>
<rect width="5.12209" height="5.12209" rx="0.5" transform="matrix(0.945979 -0.32381 0.32758 0.944967 3.00891 11.3848)" fill="#4D99F2"/>
<rect width="5.12209" height="5.12209" rx="0.5" transform="matrix(0.945979 -0.32381 0.32758 0.944967 4.90546 16.9014)" fill="#4D99F2"/>
<rect width="5.12209" height="5.12209" rx="0.5" transform="matrix(0.945979 -0.32381 0.32758 0.944967 6.80206 22.4189)" fill="#4D99F2"/>
<rect width="5.12209" height="5.12209" rx="0.5" transform="matrix(0.945979 -0.32381 0.32758 0.944967 8.69843 27.9375)" fill="#4D99F2"/>
<rect width="5.12209" height="5.12209" rx="0.5" transform="matrix(0.945979 -0.32381 0.32758 0.944967 14.2148 26.0352)" fill="#4D99F2"/>
<rect width="5.12209" height="5.12209" rx="0.5" transform="matrix(0.945979 -0.32381 0.32758 0.944967 19.731 24.1318)" fill="#4D99F2"/>
<rect width="5.12209" height="5.12209" rx="0.5" transform="matrix(0.945979 -0.32381 0.32758 0.944967 25.2473 22.2305)" fill="#4D99F2"/>
</g>
</g>
<defs>
<filter id="filter0_i_3236_11261" x="3.14502" y="3.95039" width="28.6895" height="28.6922" filterUnits="userSpaceOnUse" color-interpolation-filters="sRGB">
<feFlood flood-opacity="0" result="BackgroundImageFix"/>
<feBlend mode="normal" in="SourceGraphic" in2="BackgroundImageFix" result="shape"/>
<feColorMatrix in="SourceAlpha" type="matrix" values="0 0 0 0 0 0 0 0 0 0 0 0 0 0 0 0 0 0 127 0" result="hardAlpha"/>
<feOffset dx="0.2" dy="-0.2"/>
<feGaussianBlur stdDeviation="0.1"/>
<feComposite in2="hardAlpha" operator="arithmetic" k2="-1" k3="1"/>
<feColorMatrix type="matrix" values="0 0 0 0 0 0 0 0 0 0 0 0 0 0 0 0 0 0 0.4 0"/>
<feBlend mode="normal" in2="shape" result="effect1_innerShadow_3236_11261"/>
</filter>
<clipPath id="clip0_3236_11261">
<rect width="123" height="36" fill="white"/>
</clipPath>
</defs>
</svg>
