<svg width="58" height="54" viewBox="0 0 58 54" fill="none" xmlns="http://www.w3.org/2000/svg">
<path d="M52.7347 31.0053C55.9415 31.0053 57.5449 32.6087 57.5449 35.8155V48.8565C57.5449 52.0633 55.9415 53.6667 52.7347 53.6667H40.3351C37.1283 53.6667 35.5249 52.0633 35.5249 48.8565V35.8155C35.5249 28.3329 36.3088 21.8124 37.8765 16.254C39.5156 10.6243 42.6867 5.70716 47.39 1.50269C48.9578 0.148702 50.2762 -0.0294539 51.3451 0.968218L56.1553 5.45774C57.2242 6.45541 56.9748 7.66687 55.407 9.09212C52.9841 11.23 50.9888 14.3299 49.421 18.3918C47.9245 22.3825 47.1762 26.587 47.1762 31.0053H52.7347ZM17.4599 31.0053C20.6667 31.0053 22.2701 32.6087 22.2701 35.8155V48.8565C22.2701 52.0633 20.6667 53.6667 17.4599 53.6667H5.06025C1.85344 53.6667 0.250042 52.0633 0.250042 48.8565V35.8155C0.250042 28.3329 1.03393 21.8124 2.6017 16.254C4.24073 10.6243 7.4119 5.70716 12.1152 1.50269C13.683 0.148702 15.0013 -0.0294539 16.0703 0.968218L20.8805 5.45774C21.9494 6.45541 21.7 7.66687 20.1322 9.09212C17.7093 11.23 15.714 14.3299 14.1462 18.3918C12.6497 22.3825 11.9014 26.587 11.9014 31.0053H17.4599Z" fill="#2563EB"/>
</svg>
