<svg width="116" height="20" viewBox="0 0 116 20" fill="none" xmlns="http://www.w3.org/2000/svg">
<path d="M18.3203 8.93596L14.7969 12.011L15.8524 16.5891C15.9082 16.8284 15.8923 17.0789 15.8065 17.3092C15.7208 17.5396 15.5691 17.7395 15.3703 17.8841C15.1716 18.0286 14.9346 18.1114 14.6891 18.122C14.4436 18.1326 14.2004 18.0706 13.9899 17.9438L9.99689 15.5219L6.01252 17.9438C5.80202 18.0706 5.55881 18.1326 5.31328 18.122C5.06775 18.1114 4.83079 18.0286 4.63204 17.8841C4.4333 17.7395 4.28157 17.5396 4.19584 17.3092C4.1101 17.0789 4.09416 16.8284 4.15002 16.5891L5.20392 12.0157L1.6797 8.93596C1.49331 8.7752 1.35852 8.56298 1.29225 8.32592C1.22598 8.08886 1.23117 7.83751 1.30718 7.60339C1.38319 7.36927 1.52663 7.16281 1.71952 7.00988C1.9124 6.85696 2.14614 6.76439 2.39142 6.74378L7.03674 6.34143L8.85002 2.01643C8.94471 1.78949 9.10443 1.59564 9.30907 1.45929C9.51371 1.32294 9.75411 1.25018 10 1.25018C10.2459 1.25018 10.4863 1.32294 10.691 1.45929C10.8956 1.59564 11.0553 1.78949 11.15 2.01643L12.9688 6.34143L17.6125 6.74378C17.8578 6.76439 18.0915 6.85696 18.2844 7.00988C18.4773 7.16281 18.6207 7.36927 18.6968 7.60339C18.7728 7.83751 18.778 8.08886 18.7117 8.32592C18.6454 8.56298 18.5106 8.7752 18.3242 8.93596H18.3203Z" fill="#FFAB00"/>
<path d="M42.3203 8.93596L38.7969 12.011L39.8524 16.5891C39.9082 16.8284 39.8923 17.0789 39.8065 17.3092C39.7208 17.5396 39.5691 17.7395 39.3703 17.8841C39.1716 18.0286 38.9346 18.1114 38.6891 18.122C38.4436 18.1326 38.2004 18.0706 37.9899 17.9438L33.9969 15.5219L30.0125 17.9438C29.802 18.0706 29.5588 18.1326 29.3133 18.122C29.0677 18.1114 28.8308 18.0286 28.632 17.8841C28.4333 17.7395 28.2816 17.5396 28.1958 17.3092C28.1101 17.0789 28.0942 16.8284 28.15 16.5891L29.2039 12.0157L25.6797 8.93596C25.4933 8.7752 25.3585 8.56298 25.2922 8.32592C25.226 8.08886 25.2312 7.83751 25.3072 7.60339C25.3832 7.36927 25.5266 7.16281 25.7195 7.00988C25.9124 6.85696 26.1461 6.76439 26.3914 6.74378L31.0367 6.34143L32.85 2.01643C32.9447 1.78949 33.1044 1.59564 33.3091 1.45929C33.5137 1.32294 33.7541 1.25018 34 1.25018C34.2459 1.25018 34.4863 1.32294 34.691 1.45929C34.8956 1.59564 35.0553 1.78949 35.15 2.01643L36.9688 6.34143L41.6125 6.74378C41.8578 6.76439 42.0915 6.85696 42.2844 7.00988C42.4773 7.16281 42.6207 7.36927 42.6968 7.60339C42.7728 7.83751 42.778 8.08886 42.7117 8.32592C42.6454 8.56298 42.5106 8.7752 42.3242 8.93596H42.3203Z" fill="#FFAB00"/>
<path d="M66.3203 8.93596L62.7969 12.011L63.8524 16.5891C63.9082 16.8284 63.8923 17.0789 63.8065 17.3092C63.7208 17.5396 63.5691 17.7395 63.3703 17.8841C63.1716 18.0286 62.9346 18.1114 62.6891 18.122C62.4436 18.1326 62.2004 18.0706 61.9899 17.9438L57.9969 15.5219L54.0125 17.9438C53.802 18.0706 53.5588 18.1326 53.3133 18.122C53.0677 18.1114 52.8308 18.0286 52.632 17.8841C52.4333 17.7395 52.2816 17.5396 52.1958 17.3092C52.1101 17.0789 52.0942 16.8284 52.15 16.5891L53.2039 12.0157L49.6797 8.93596C49.4933 8.7752 49.3585 8.56298 49.2922 8.32592C49.226 8.08886 49.2312 7.83751 49.3072 7.60339C49.3832 7.36927 49.5266 7.16281 49.7195 7.00988C49.9124 6.85696 50.1461 6.76439 50.3914 6.74378L55.0367 6.34143L56.85 2.01643C56.9447 1.78949 57.1044 1.59564 57.3091 1.45929C57.5137 1.32294 57.7541 1.25018 58 1.25018C58.2459 1.25018 58.4863 1.32294 58.691 1.45929C58.8956 1.59564 59.0553 1.78949 59.15 2.01643L60.9688 6.34143L65.6125 6.74378C65.8578 6.76439 66.0915 6.85696 66.2844 7.00988C66.4773 7.16281 66.6207 7.36927 66.6968 7.60339C66.7728 7.83751 66.778 8.08886 66.7117 8.32592C66.6454 8.56298 66.5106 8.7752 66.3242 8.93596H66.3203Z" fill="#FFAB00"/>
<path d="M90.3203 8.93596L86.7969 12.011L87.8524 16.5891C87.9082 16.8284 87.8923 17.0789 87.8065 17.3092C87.7208 17.5396 87.5691 17.7395 87.3703 17.8841C87.1716 18.0286 86.9346 18.1114 86.6891 18.122C86.4436 18.1326 86.2004 18.0706 85.9899 17.9438L81.9969 15.5219L78.0125 17.9438C77.802 18.0706 77.5588 18.1326 77.3133 18.122C77.0677 18.1114 76.8308 18.0286 76.632 17.8841C76.4333 17.7395 76.2816 17.5396 76.1958 17.3092C76.1101 17.0789 76.0942 16.8284 76.15 16.5891L77.2039 12.0157L73.6797 8.93596C73.4933 8.7752 73.3585 8.56298 73.2922 8.32592C73.226 8.08886 73.2312 7.83751 73.3072 7.60339C73.3832 7.36927 73.5266 7.16281 73.7195 7.00988C73.9124 6.85696 74.1461 6.76439 74.3914 6.74378L79.0367 6.34143L80.85 2.01643C80.9447 1.78949 81.1044 1.59564 81.3091 1.45929C81.5137 1.32294 81.7541 1.25018 82 1.25018C82.2459 1.25018 82.4863 1.32294 82.691 1.45929C82.8956 1.59564 83.0553 1.78949 83.15 2.01643L84.9688 6.34143L89.6125 6.74378C89.8578 6.76439 90.0915 6.85696 90.2844 7.00988C90.4773 7.16281 90.6207 7.36927 90.6968 7.60339C90.7728 7.83751 90.778 8.08886 90.7117 8.32592C90.6454 8.56298 90.5106 8.7752 90.3242 8.93596H90.3203Z" fill="#FFAB00"/>
<path d="M114.32 8.93596L110.797 12.011L111.852 16.5891C111.908 16.8284 111.892 17.0789 111.807 17.3092C111.721 17.5396 111.569 17.7395 111.37 17.8841C111.172 18.0286 110.935 18.1114 110.689 18.122C110.444 18.1326 110.2 18.0706 109.99 17.9438L105.997 15.5219L102.013 17.9438C101.802 18.0706 101.559 18.1326 101.313 18.122C101.068 18.1114 100.831 18.0286 100.632 17.8841C100.433 17.7395 100.282 17.5396 100.196 17.3092C100.11 17.0789 100.094 16.8284 100.15 16.5891L101.204 12.0157L97.6797 8.93596C97.4933 8.7752 97.3585 8.56298 97.2922 8.32592C97.226 8.08886 97.2312 7.83751 97.3072 7.60339C97.3832 7.36927 97.5266 7.16281 97.7195 7.00988C97.9124 6.85696 98.1461 6.76439 98.3914 6.74378L103.037 6.34143L104.85 2.01643C104.945 1.78949 105.104 1.59564 105.309 1.45929C105.514 1.32294 105.754 1.25018 106 1.25018C106.246 1.25018 106.486 1.32294 106.691 1.45929C106.896 1.59564 107.055 1.78949 107.15 2.01643L108.969 6.34143L113.613 6.74378C113.858 6.76439 114.092 6.85696 114.284 7.00988C114.477 7.16281 114.621 7.36927 114.697 7.60339C114.773 7.83751 114.778 8.08886 114.712 8.32592C114.645 8.56298 114.511 8.7752 114.324 8.93596H114.32Z" fill="#FFAB00"/>
</svg>
